<svg width="32" height="32" viewBox="0 0 257 256" fill="none" xmlns="http://www.w3.org/2000/svg">
<path d="M113.326 24.0852C174.395 20.6472 220.445 64.4778 237.232 83.1978C234.953 82.604 232.673 81.9379 230.393 81.236C225.005 79.5439 219.625 77.7438 214.256 75.8358C208.894 73.8919 203.534 71.8398 198.173 69.7699L189.883 66.8717C187.854 66.2241 185.824 65.6831 183.767 65.1347C183.024 64.9363 182.276 64.7372 181.524 64.5317C170.364 61.8053 159.008 60.6765 147.66 61.1658C142.01 61.3512 136.374 61.952 130.776 62.9656C125.172 63.9428 119.631 65.4528 114.196 67.4837L114.624 69.3916C120.031 67.7601 125.521 66.641 131.052 66.0436C136.564 65.3952 142.099 65.1489 147.632 65.3057C158.697 65.5475 169.71 67.3585 180.474 70.7058C181.535 71.0874 182.601 71.4519 183.666 71.816L183.667 71.8164C185.265 72.3626 186.863 72.9091 188.446 73.514L196.294 76.826C201.599 79.256 206.905 81.6681 212.238 84.026C213.312 84.496 214.391 84.9515 215.469 85.4063L215.475 85.4089C216.087 85.6675 216.699 85.9254 217.309 86.1858C196.225 86.528 168.343 89.2281 153.628 100.082C140.174 110.083 124.692 114.48 109.264 112.682C101.924 111.043 95.1605 106.454 89.9205 99.5602C84.3941 91.82 81.6305 81.3619 81.8515 68.5099C82.4735 34.7235 103.64 26.3533 110.286 24.5712L113.409 24.0852H113.326Z" fill="white"/>
<path d="M42.3453 68.4197L67.2152 68.5278C67.3051 68.5304 67.3947 68.5088 67.4779 68.4639C67.5611 68.4193 67.6362 68.3524 67.6986 68.2677C67.761 68.1833 67.8093 68.0827 67.8402 67.9723C67.871 67.8623 67.884 67.7449 67.8785 67.6279C67.6317 59.868 68.8226 52.1453 71.3499 45.1114C73.8776 38.0779 77.6674 31.9402 82.3995 27.2173C82.5109 27.1002 82.5897 26.9383 82.6235 26.7568C82.657 26.5753 82.6436 26.3844 82.5853 26.2139C82.5269 26.0434 82.427 25.9028 82.301 25.8141C82.1747 25.7253 82.0298 25.6934 81.8882 25.7232C77.9134 26.6357 69.8324 28.967 61.9299 34.1762C64.3067 36.5813 65.5912 42.074 64.9235 48.1199C64.0745 55.8047 60.392 61.4735 56.6988 60.7809C53.0056 60.0883 50.6997 53.2971 51.5487 45.6123C51.6557 44.6432 51.8077 43.7066 51.999 42.8107C46.798 48.8314 42.7578 56.8372 41.6959 67.4477C41.6843 67.5684 41.6925 67.691 41.7196 67.8073C41.7468 67.9236 41.7925 68.0314 41.8538 68.1232C41.9151 68.2149 41.9905 68.2885 42.0752 68.3398C42.1599 68.391 42.2521 68.4182 42.3453 68.4197Z" fill="white"/>
<path d="M67.579 78.5359H39.9462C39.8084 78.5281 39.6728 78.5787 39.5591 78.6801C36.5057 81.1821 -0.702081 114.95 108.904 173.901C109.051 173.991 109.219 174.006 109.374 173.943C109.529 173.88 109.661 173.743 109.742 173.56C109.824 173.377 109.849 173.16 109.815 172.954C109.78 172.747 109.687 172.565 109.554 172.443C97.1189 160.599 65.8245 125.967 68.353 79.544C68.3611 79.4087 68.347 79.2731 68.311 79.1457C68.2749 79.0186 68.2184 78.903 68.1449 78.8072C68.0713 78.7113 67.9825 78.6374 67.8848 78.5906C67.7871 78.5437 67.683 78.5252 67.579 78.5359Z" fill="white"/>
<path fill-rule="evenodd" clip-rule="evenodd" d="M253.287 157.453C253.976 157.453 254.646 157.749 255.194 158.295C255.764 158.824 256.18 159.587 256.376 160.463C256.572 161.338 256.535 162.274 256.271 163.119C248.424 189.399 231.927 213.07 209.82 229.72C186.982 246.91 159.763 256 131.066 256C59.0683 256 0.5 197.697 0.5 126.02C0.5 94.934 8.94191 66.9799 24.9277 45.2355C41.9772 22.0152 67.4549 6.48102 98.4313 0.234956C100.383 -0.193965 102.385 -0.0340483 104.282 0.70237C106.179 1.43882 107.921 2.73216 109.374 4.483C111.298 6.84938 112.66 9.88575 113.298 13.2311C193.987 8.89303 247.829 80.8578 250.082 83.9361L250.634 84.6918C251.144 85.3799 251.452 86.2776 251.508 87.2306C251.564 88.1837 251.362 89.1319 250.938 89.9121L247.691 95.9421C247.389 96.5273 246.976 97.0006 246.491 97.3161C246.007 97.6315 245.469 97.7783 244.928 97.7422H244.389C243.753 97.688 180.778 92.5401 157.801 109.46C145.015 118.911 130.582 123.932 115.882 124.04C113.336 124.076 110.792 123.871 108.269 123.428C101.472 121.993 95.0249 118.517 89.4368 113.276C99.8547 155.055 138.582 185.439 183.5 185.439C209.047 185.439 233.156 175.791 251.38 158.295C251.928 157.749 252.598 157.453 253.287 157.453ZM237.232 83.1978C220.445 64.4778 174.395 20.6472 113.326 24.0852H113.409L110.286 24.5712C103.64 26.3533 82.4735 34.7235 81.8515 68.5099C81.6304 81.362 84.394 91.82 89.9205 99.5602C95.1605 106.454 101.924 111.043 109.264 112.682C124.692 114.48 140.174 110.083 153.628 100.082C168.343 89.2281 196.225 86.528 217.309 86.1858C216.699 85.9254 216.087 85.6675 215.475 85.4089L215.469 85.4063C214.391 84.9515 213.312 84.496 212.238 84.026C206.905 81.6681 201.599 79.256 196.294 76.826L188.446 73.514C186.863 72.9091 185.265 72.3626 183.667 71.8164L183.666 71.816C182.601 71.4519 181.535 71.0874 180.474 70.7058C169.71 67.3585 158.697 65.5475 147.632 65.3057C142.099 65.1489 136.564 65.3952 131.052 66.0436C125.521 66.641 120.031 67.7601 114.624 69.3916L114.196 67.4837C119.631 65.4528 125.172 63.9428 130.776 62.9656C136.374 61.952 142.01 61.3512 147.66 61.1658C159.008 60.6765 170.364 61.8053 181.524 64.5317C182.276 64.7372 183.024 64.9363 183.767 65.1347C185.824 65.6832 187.854 66.2241 189.883 66.8718L198.173 69.7699C203.534 71.8398 208.894 73.8919 214.255 75.8358C219.625 77.7438 225.005 79.5439 230.393 81.236C232.673 81.9379 234.952 82.6041 237.232 83.1978ZM39.9463 78.5359H67.579C67.6831 78.5251 67.7871 78.5437 67.8848 78.5905C67.9826 78.6374 68.0714 78.7113 68.1449 78.8072C68.2185 78.903 68.275 79.0186 68.311 79.1456C68.347 79.2731 68.3612 79.4087 68.353 79.5439C65.8246 125.967 97.119 160.599 109.554 172.443C109.687 172.565 109.78 172.747 109.815 172.954C109.85 173.16 109.824 173.377 109.742 173.56C109.661 173.743 109.529 173.88 109.374 173.943C109.219 174.006 109.051 173.991 108.904 173.901C-0.702048 114.95 36.5057 81.1821 39.5591 78.6801C39.6728 78.5786 39.8084 78.5281 39.9463 78.5359ZM42.3454 68.4196L67.2153 68.5278C67.3052 68.5304 67.3948 68.5088 67.478 68.4639C67.5612 68.4193 67.6363 68.3524 67.6987 68.2677C67.7611 68.1833 67.8094 68.0826 67.8403 67.9723C67.8711 67.8623 67.8841 67.7449 67.8785 67.6279C67.6318 59.868 68.8226 52.1453 71.3499 45.1114C73.8776 38.0779 77.6674 31.9402 82.3995 27.2172C82.511 27.1002 82.5898 26.9382 82.6236 26.7567C82.657 26.5753 82.6437 26.3844 82.5853 26.2139C82.527 26.0434 82.427 25.9028 82.3011 25.814C82.1748 25.7253 82.0299 25.6934 81.8883 25.7232C77.9134 26.6357 69.8325 28.967 61.93 34.1762C58.4652 36.4601 55.0343 39.2973 51.9991 42.8107C46.7981 48.8314 42.7578 56.8372 41.6959 67.4477C41.6844 67.5684 41.6926 67.691 41.7197 67.8073C41.7468 67.9236 41.7925 68.0314 41.8538 68.1231C41.9151 68.2149 41.9906 68.2885 42.0753 68.3398C42.16 68.391 42.2521 68.4182 42.3454 68.4196Z" fill="#FF4D01"/>
<path d="M56.6988 60.7809C60.3921 61.4735 64.0745 55.8047 64.9235 48.1198C65.5912 42.0739 64.3067 36.5813 61.9299 34.1762C58.4652 36.4601 55.0343 39.2973 51.999 42.8107C51.8077 43.7065 51.6557 44.6432 51.5487 45.6122C50.6997 53.2971 53.0056 60.0883 56.6988 60.7809Z" fill="#FF4D01"/>
</svg>